<svg width="116" height="43" viewBox="0 0 116 43" fill="none" xmlns="http://www.w3.org/2000/svg">
<rect width="116" height="43" rx="21.5" fill="#F28A62"/>
<path d="M31.456 14.878H32.814V23.698H37.952V25H31.456V14.878ZM39.843 19.204H41.145V25H39.843V19.204ZM39.745 17.104C39.745 16.8987 39.8243 16.726 39.983 16.586C40.151 16.446 40.333 16.376 40.529 16.376C40.725 16.376 40.8977 16.446 41.047 16.586C41.2057 16.726 41.285 16.8987 41.285 17.104C41.285 17.3187 41.2057 17.496 41.047 17.636C40.8977 17.7667 40.725 17.832 40.529 17.832C40.333 17.832 40.151 17.762 39.983 17.622C39.8243 17.482 39.745 17.3093 39.745 17.104ZM45.7497 25.168L42.5297 19.204H44.0697L46.2537 23.81L45.4557 23.782L47.4577 19.204H48.9137L45.8197 25.168H45.7497ZM52.8669 25.14C52.2043 25.14 51.6349 25.0093 51.1589 24.748C50.6829 24.4773 50.3143 24.1133 50.0529 23.656C49.8009 23.1893 49.6749 22.6573 49.6749 22.06C49.6749 21.4907 49.8196 20.9727 50.1089 20.506C50.3983 20.0393 50.7856 19.666 51.2709 19.386C51.7563 19.106 52.2976 18.966 52.8949 18.966C53.6603 18.966 54.2949 19.19 54.7989 19.638C55.3029 20.086 55.6436 20.702 55.8209 21.486L51.0469 23.166L50.7389 22.396L54.6589 20.968L54.3789 21.15C54.2669 20.842 54.0803 20.576 53.8189 20.352C53.5576 20.1187 53.2169 20.002 52.7969 20.002C52.4423 20.002 52.1249 20.0907 51.8449 20.268C51.5649 20.436 51.3456 20.6693 51.1869 20.968C51.0283 21.2667 50.9489 21.6073 50.9489 21.99C50.9489 22.3913 51.0329 22.746 51.2009 23.054C51.3689 23.3527 51.5976 23.5907 51.8869 23.768C52.1856 23.936 52.5216 24.02 52.8949 24.02C53.1469 24.02 53.3896 23.9733 53.6229 23.88C53.8656 23.7867 54.0896 23.6653 54.2949 23.516L54.8969 24.482C54.6076 24.678 54.2809 24.8367 53.9169 24.958C53.5623 25.0793 53.2123 25.14 52.8669 25.14ZM61.462 14.878H68.182V16.18H65.466V25H64.108V16.18H61.462V14.878ZM71.2009 25.14C70.5382 25.14 69.9689 25.0093 69.4929 24.748C69.0169 24.4773 68.6482 24.1133 68.3869 23.656C68.1349 23.1893 68.0089 22.6573 68.0089 22.06C68.0089 21.4907 68.1536 20.9727 68.4429 20.506C68.7322 20.0393 69.1196 19.666 69.6049 19.386C70.0902 19.106 70.6316 18.966 71.2289 18.966C71.9942 18.966 72.6289 19.19 73.1329 19.638C73.6369 20.086 73.9776 20.702 74.1549 21.486L69.3809 23.166L69.0729 22.396L72.9929 20.968L72.7129 21.15C72.6009 20.842 72.4142 20.576 72.1529 20.352C71.8916 20.1187 71.5509 20.002 71.1309 20.002C70.7762 20.002 70.4589 20.0907 70.1789 20.268C69.8989 20.436 69.6796 20.6693 69.5209 20.968C69.3622 21.2667 69.2829 21.6073 69.2829 21.99C69.2829 22.3913 69.3669 22.746 69.5349 23.054C69.7029 23.3527 69.9316 23.5907 70.2209 23.768C70.5196 23.936 70.8556 24.02 71.2289 24.02C71.4809 24.02 71.7236 23.9733 71.9569 23.88C72.1996 23.7867 72.4236 23.6653 72.6289 23.516L73.2309 24.482C72.9416 24.678 72.6149 24.8367 72.2509 24.958C71.8962 25.0793 71.5462 25.14 71.2009 25.14ZM77.4103 25.112C76.9997 25.112 76.5983 25.042 76.2063 24.902C75.8237 24.7527 75.5063 24.5333 75.2543 24.244L75.8003 23.488C76.043 23.7213 76.2903 23.8987 76.5423 24.02C76.8037 24.132 77.0603 24.188 77.3123 24.188C77.499 24.188 77.6717 24.1647 77.8303 24.118C77.989 24.0713 78.115 23.9967 78.2083 23.894C78.311 23.782 78.3623 23.6327 78.3623 23.446C78.3623 23.2407 78.2923 23.0773 78.1523 22.956C78.0217 22.8347 77.849 22.7367 77.6343 22.662C77.429 22.5873 77.2097 22.5173 76.9763 22.452C76.5003 22.2933 76.1363 22.074 75.8843 21.794C75.6323 21.514 75.5063 21.1733 75.5063 20.772C75.5063 20.464 75.581 20.1793 75.7303 19.918C75.889 19.6473 76.1177 19.428 76.4163 19.26C76.7243 19.092 77.1023 19.008 77.5503 19.008C77.9517 19.008 78.311 19.0593 78.6283 19.162C78.9457 19.2553 79.2443 19.414 79.5243 19.638L79.0063 20.45C78.8383 20.2727 78.6377 20.142 78.4043 20.058C78.171 19.974 77.961 19.9273 77.7743 19.918C77.6157 19.9087 77.4617 19.932 77.3123 19.988C77.1723 20.044 77.0557 20.1233 76.9623 20.226C76.869 20.3287 76.8223 20.45 76.8223 20.59C76.8223 20.786 76.8877 20.9447 77.0183 21.066C77.149 21.1873 77.317 21.2853 77.5223 21.36C77.737 21.4253 77.947 21.4953 78.1523 21.57C78.4417 21.654 78.6983 21.766 78.9223 21.906C79.1463 22.046 79.3237 22.2187 79.4543 22.424C79.5943 22.6293 79.6643 22.886 79.6643 23.194C79.6643 23.5393 79.5803 23.8613 79.4123 24.16C79.2537 24.4493 79.0063 24.6827 78.6703 24.86C78.3437 25.028 77.9237 25.112 77.4103 25.112ZM82.0475 16.656H83.3495V19.232H84.9455V20.254H83.3495V25H82.0475V20.254H80.9835V19.232H82.0475V16.656Z" fill="#F8F5EC"/>
</svg>
