<svg width="118" height="43" viewBox="0 0 118 43" fill="none" xmlns="http://www.w3.org/2000/svg">
<rect width="118" height="43" rx="21.5" fill="#F28A62"/>
<path d="M31.456 14.878H32.814V23.698H37.952V25H31.456V14.878ZM42.531 25.14C41.8683 25.14 41.299 25.0093 40.823 24.748C40.347 24.4773 39.9783 24.1133 39.717 23.656C39.465 23.1893 39.339 22.6573 39.339 22.06C39.339 21.4907 39.4837 20.9727 39.773 20.506C40.0623 20.0393 40.4497 19.666 40.935 19.386C41.4203 19.106 41.9617 18.966 42.559 18.966C43.3243 18.966 43.959 19.19 44.463 19.638C44.967 20.086 45.3077 20.702 45.485 21.486L40.711 23.166L40.403 22.396L44.323 20.968L44.043 21.15C43.931 20.842 43.7443 20.576 43.483 20.352C43.2217 20.1187 42.881 20.002 42.461 20.002C42.1063 20.002 41.789 20.0907 41.509 20.268C41.229 20.436 41.0097 20.6693 40.851 20.968C40.6923 21.2667 40.613 21.6073 40.613 21.99C40.613 22.3913 40.697 22.746 40.865 23.054C41.033 23.3527 41.2617 23.5907 41.551 23.768C41.8497 23.936 42.1857 24.02 42.559 24.02C42.811 24.02 43.0537 23.9733 43.287 23.88C43.5297 23.7867 43.7537 23.6653 43.959 23.516L44.561 24.482C44.2717 24.678 43.945 24.8367 43.581 24.958C43.2263 25.0793 42.8763 25.14 42.531 25.14ZM47.6764 16.656H48.9784V19.232H50.5744V20.254H48.9784V25H47.6764V20.254H46.6124V19.232H47.6764V16.656ZM52.1617 17.104L51.5037 16.768C51.6997 16.5813 51.8537 16.3247 51.9657 15.998C52.087 15.6713 52.115 15.3447 52.0497 15.018L53.0857 14.92C53.1417 15.1813 53.1323 15.4567 53.0577 15.746C52.983 16.026 52.8663 16.2873 52.7077 16.53C52.549 16.7727 52.367 16.964 52.1617 17.104ZM56.3557 25.112C55.945 25.112 55.5437 25.042 55.1517 24.902C54.769 24.7527 54.4517 24.5333 54.1997 24.244L54.7457 23.488C54.9883 23.7213 55.2357 23.8987 55.4877 24.02C55.749 24.132 56.0057 24.188 56.2577 24.188C56.4443 24.188 56.617 24.1647 56.7757 24.118C56.9343 24.0713 57.0603 23.9967 57.1537 23.894C57.2563 23.782 57.3077 23.6327 57.3077 23.446C57.3077 23.2407 57.2377 23.0773 57.0977 22.956C56.967 22.8347 56.7943 22.7367 56.5797 22.662C56.3743 22.5873 56.155 22.5173 55.9217 22.452C55.4457 22.2933 55.0817 22.074 54.8297 21.794C54.5777 21.514 54.4517 21.1733 54.4517 20.772C54.4517 20.464 54.5263 20.1793 54.6757 19.918C54.8343 19.6473 55.063 19.428 55.3617 19.26C55.6697 19.092 56.0477 19.008 56.4957 19.008C56.897 19.008 57.2563 19.0593 57.5737 19.162C57.891 19.2553 58.1897 19.414 58.4697 19.638L57.9517 20.45C57.7837 20.2727 57.583 20.142 57.3497 20.058C57.1163 19.974 56.9063 19.9273 56.7197 19.918C56.561 19.9087 56.407 19.932 56.2577 19.988C56.1177 20.044 56.001 20.1233 55.9077 20.226C55.8143 20.3287 55.7677 20.45 55.7677 20.59C55.7677 20.786 55.833 20.9447 55.9637 21.066C56.0943 21.1873 56.2623 21.2853 56.4677 21.36C56.6823 21.4253 56.8923 21.4953 57.0977 21.57C57.387 21.654 57.6437 21.766 57.8677 21.906C58.0917 22.046 58.269 22.2187 58.3997 22.424C58.5397 22.6293 58.6097 22.886 58.6097 23.194C58.6097 23.5393 58.5257 23.8613 58.3577 24.16C58.199 24.4493 57.9517 24.6827 57.6157 24.86C57.289 25.028 56.869 25.112 56.3557 25.112ZM65.4225 16.656H66.7245V19.232H68.3205V20.254H66.7245V25H65.4225V20.254H64.3585V19.232H65.4225V16.656ZM72.3018 25.14C71.7604 25.14 71.2658 25.0233 70.8178 24.79C70.3791 24.5567 70.0291 24.216 69.7678 23.768C69.5158 23.3107 69.3898 22.7553 69.3898 22.102C69.3898 21.458 69.5251 20.9027 69.7958 20.436C70.0664 19.96 70.4258 19.596 70.8738 19.344C71.3311 19.092 71.8304 18.966 72.3718 18.966C72.9131 18.966 73.3704 19.092 73.7438 19.344C74.1171 19.5867 74.4018 19.876 74.5978 20.212L74.5138 20.436L74.6398 19.204H75.8438V25H74.5418V23.488L74.6818 23.824C74.6444 23.9173 74.5604 24.0387 74.4298 24.188C74.3084 24.328 74.1404 24.4727 73.9258 24.622C73.7204 24.7713 73.4824 24.8973 73.2118 25C72.9411 25.0933 72.6378 25.14 72.3018 25.14ZM72.6518 24.062C72.9784 24.062 73.2724 24.0013 73.5338 23.88C73.7951 23.7587 74.0098 23.5907 74.1778 23.376C74.3551 23.152 74.4764 22.886 74.5418 22.578V21.444C74.4671 21.164 74.3364 20.9213 74.1498 20.716C73.9631 20.5013 73.7391 20.338 73.4778 20.226C73.2164 20.1047 72.9271 20.044 72.6098 20.044C72.2644 20.044 71.9471 20.128 71.6578 20.296C71.3684 20.464 71.1351 20.6973 70.9578 20.996C70.7898 21.2947 70.7058 21.6447 70.7058 22.046C70.7058 22.4193 70.7944 22.76 70.9718 23.068C71.1491 23.376 71.3871 23.6187 71.6858 23.796C71.9844 23.9733 72.3064 24.062 72.6518 24.062ZM78.0969 14.164H79.3989V25H78.0969V14.164ZM81.6516 25V14.164H82.9536V25H81.6516ZM84.3536 21.15L87.0136 25H85.4876L83.4856 21.878L84.3536 21.15ZM82.5476 23.152L82.4216 21.906L85.9356 19.078L86.7336 19.764L82.5476 23.152Z" fill="#F8F5EC"/>
</svg>
