<svg width="106" height="43" viewBox="0 0 106 43" fill="none" xmlns="http://www.w3.org/2000/svg">
<rect x="0.5" y="0.5" width="105" height="42" rx="21" fill="#F8F5EC" fill-opacity="0.12" stroke="#F28A62"/>
<path d="M39.38 24.132C39.24 24.2533 39.044 24.3747 38.792 24.496C38.54 24.608 38.26 24.7107 37.952 24.804C37.6533 24.8973 37.3407 24.972 37.014 25.028C36.6967 25.084 36.398 25.112 36.118 25.112C35.306 25.112 34.5733 24.986 33.92 24.734C33.276 24.482 32.7207 24.132 32.254 23.684C31.7967 23.236 31.442 22.7087 31.19 22.102C30.9473 21.4953 30.826 20.8373 30.826 20.128C30.826 19.288 30.9613 18.5367 31.232 17.874C31.512 17.202 31.89 16.6373 32.366 16.18C32.8513 15.7133 33.4067 15.3633 34.032 15.13C34.6573 14.8873 35.32 14.766 36.02 14.766C36.608 14.766 37.154 14.836 37.658 14.976C38.162 15.116 38.6053 15.2933 38.988 15.508L38.526 16.754C38.3393 16.642 38.106 16.5393 37.826 16.446C37.5553 16.3527 37.2753 16.278 36.986 16.222C36.6967 16.1567 36.426 16.124 36.174 16.124C35.5767 16.124 35.0353 16.2173 34.55 16.404C34.0647 16.5813 33.6493 16.8427 33.304 17.188C32.9587 17.524 32.6927 17.9347 32.506 18.42C32.3193 18.896 32.226 19.4327 32.226 20.03C32.226 20.5807 32.3193 21.0847 32.506 21.542C32.6927 21.9993 32.9587 22.396 33.304 22.732C33.6493 23.0587 34.06 23.3153 34.536 23.502C35.0213 23.6793 35.5533 23.768 36.132 23.768C36.4773 23.768 36.818 23.7353 37.154 23.67C37.49 23.5953 37.7793 23.4927 38.022 23.362V21.346H36.006V20.044H39.38V24.132ZM41.6477 19.204H42.9497V25H41.6477V19.204ZM41.5497 17.104C41.5497 16.8987 41.629 16.726 41.7877 16.586C41.9557 16.446 42.1377 16.376 42.3337 16.376C42.5297 16.376 42.7023 16.446 42.8517 16.586C43.0103 16.726 43.0897 16.8987 43.0897 17.104C43.0897 17.3187 43.0103 17.496 42.8517 17.636C42.7023 17.7667 42.5297 17.832 42.3337 17.832C42.1377 17.832 41.9557 17.762 41.7877 17.622C41.629 17.482 41.5497 17.3093 41.5497 17.104ZM45.7624 16.656H47.0644V19.232H48.6604V20.254H47.0644V25H45.7624V20.254H44.6984V19.232H45.7624V16.656ZM58.5636 14.878V25H57.2196V20.562H51.9136V25H50.5556V14.878H51.9136V19.274H57.2196V14.878H58.5636ZM62.9914 25.224C62.4688 25.224 62.0348 25.0653 61.6894 24.748C61.3534 24.4213 61.1761 24.0013 61.1574 23.488V19.204H62.4594V23.026C62.4781 23.3433 62.5668 23.6 62.7254 23.796C62.8934 23.992 63.1548 24.0947 63.5094 24.104C63.8361 24.104 64.1254 24.0107 64.3774 23.824C64.6388 23.628 64.8488 23.3667 65.0074 23.04C65.1661 22.704 65.2454 22.326 65.2454 21.906V19.204H66.5474V25H65.3574L65.2454 23.572L65.3154 23.824C65.2034 24.0947 65.0308 24.3373 64.7974 24.552C64.5734 24.7573 64.3074 24.9207 63.9994 25.042C63.6914 25.1633 63.3554 25.224 62.9914 25.224ZM72.328 25.14C71.796 25.14 71.3247 25.0233 70.914 24.79C70.5127 24.5567 70.1907 24.2627 69.948 23.908L70.102 23.502V25H68.8V14.164H70.088V20.534L70.046 20.044C70.2793 19.7267 70.6107 19.47 71.04 19.274C71.4787 19.0687 71.964 18.966 72.496 18.966C73.0187 18.966 73.4947 19.092 73.924 19.344C74.3533 19.596 74.694 19.9507 74.946 20.408C75.2073 20.856 75.338 21.3927 75.338 22.018C75.338 22.6713 75.198 23.2313 74.918 23.698C74.6473 24.1647 74.2833 24.524 73.826 24.776C73.3687 25.0187 72.8693 25.14 72.328 25.14ZM72.062 24.034C72.4353 24.034 72.7713 23.9453 73.07 23.768C73.3687 23.5907 73.602 23.3527 73.77 23.054C73.938 22.746 74.022 22.396 74.022 22.004C74.022 21.6307 73.9333 21.2947 73.756 20.996C73.588 20.688 73.3547 20.4453 73.056 20.268C72.7667 20.0907 72.4353 20.002 72.062 20.002C71.7447 20.002 71.4507 20.0627 71.18 20.184C70.9093 20.3053 70.6807 20.4733 70.494 20.688C70.3073 20.8933 70.1767 21.136 70.102 21.416V22.578C70.1767 22.858 70.3027 23.11 70.48 23.334C70.6573 23.5487 70.8813 23.7213 71.152 23.852C71.4227 23.9733 71.726 24.034 72.062 24.034Z" fill="#F28A62"/>
</svg>
