<svg width="101" height="48" viewBox="0 0 101 48" fill="none" xmlns="http://www.w3.org/2000/svg">
<g opacity="0.5">
<rect x="0.5" y="0.5" width="100" height="47" rx="23.5" stroke="#F8F5EC"/>
<path d="M38.604 18.308C38.16 18.08 37.674 17.882 37.146 17.714C36.618 17.546 36.102 17.462 35.598 17.462C34.902 17.462 34.344 17.624 33.924 17.948C33.516 18.272 33.312 18.704 33.312 19.244C33.312 19.652 33.444 20 33.708 20.288C33.972 20.564 34.32 20.804 34.752 21.008C35.184 21.212 35.634 21.404 36.102 21.584C36.51 21.74 36.912 21.914 37.308 22.106C37.704 22.298 38.058 22.538 38.37 22.826C38.694 23.114 38.946 23.468 39.126 23.888C39.318 24.308 39.414 24.83 39.414 25.454C39.414 26.138 39.24 26.762 38.892 27.326C38.556 27.89 38.07 28.334 37.434 28.658C36.798 28.982 36.042 29.144 35.166 29.144C34.59 29.144 34.038 29.078 33.51 28.946C32.994 28.814 32.514 28.646 32.07 28.442C31.626 28.226 31.23 28.004 30.882 27.776L31.656 26.408C31.944 26.612 32.274 26.81 32.646 27.002C33.018 27.182 33.408 27.332 33.816 27.452C34.224 27.56 34.62 27.614 35.004 27.614C35.412 27.614 35.814 27.542 36.21 27.398C36.618 27.242 36.954 27.008 37.218 26.696C37.482 26.384 37.614 25.97 37.614 25.454C37.614 25.01 37.494 24.644 37.254 24.356C37.026 24.056 36.72 23.804 36.336 23.6C35.952 23.384 35.544 23.192 35.112 23.024C34.704 22.868 34.29 22.7 33.87 22.52C33.45 22.328 33.06 22.1 32.7 21.836C32.34 21.56 32.052 21.224 31.836 20.828C31.62 20.432 31.512 19.952 31.512 19.388C31.512 18.704 31.674 18.11 31.998 17.606C32.334 17.09 32.79 16.688 33.366 16.4C33.942 16.1 34.602 15.938 35.346 15.914C36.186 15.914 36.924 16.016 37.56 16.22C38.208 16.424 38.778 16.676 39.27 16.976L38.604 18.308ZM45.3906 29.18C44.5386 29.18 43.8066 29.012 43.1946 28.676C42.5826 28.328 42.1086 27.86 41.7726 27.272C41.4486 26.672 41.2866 25.988 41.2866 25.22C41.2866 24.488 41.4726 23.822 41.8446 23.222C42.2166 22.622 42.7146 22.142 43.3386 21.782C43.9626 21.422 44.6586 21.242 45.4266 21.242C46.4106 21.242 47.2266 21.53 47.8746 22.106C48.5226 22.682 48.9606 23.474 49.1886 24.482L43.0506 26.642L42.6546 25.652L47.6946 23.816L47.3346 24.05C47.1906 23.654 46.9506 23.312 46.6146 23.024C46.2786 22.724 45.8406 22.574 45.3006 22.574C44.8446 22.574 44.4366 22.688 44.0766 22.916C43.7166 23.132 43.4346 23.432 43.2306 23.816C43.0266 24.2 42.9246 24.638 42.9246 25.13C42.9246 25.646 43.0326 26.102 43.2486 26.498C43.4646 26.882 43.7586 27.188 44.1306 27.416C44.5146 27.632 44.9466 27.74 45.4266 27.74C45.7506 27.74 46.0626 27.68 46.3626 27.56C46.6746 27.44 46.9626 27.284 47.2266 27.092L48.0006 28.334C47.6286 28.586 47.2086 28.79 46.7406 28.946C46.2846 29.102 45.8346 29.18 45.3906 29.18ZM52.7801 21.548L52.9241 23.366L52.8521 23.078C53.0921 22.526 53.4821 22.088 54.0221 21.764C54.5621 21.428 55.1861 21.26 55.8941 21.26C56.6021 21.26 57.1781 21.47 57.6221 21.89C58.0781 22.298 58.3121 22.832 58.3241 23.492V29H56.6321V24.086C56.6201 23.678 56.5001 23.348 56.2721 23.096C56.0561 22.832 55.7141 22.7 55.2461 22.7C54.8141 22.7 54.4241 22.82 54.0761 23.06C53.7281 23.3 53.4521 23.63 53.2481 24.05C53.0561 24.47 52.9601 24.956 52.9601 25.508V29H51.2861V21.548H52.7801ZM64.2593 29.18C63.5753 29.18 62.9513 29.018 62.3873 28.694C61.8353 28.358 61.3973 27.89 61.0733 27.29C60.7493 26.678 60.5873 25.976 60.5873 25.184C60.5873 24.356 60.7553 23.648 61.0913 23.06C61.4393 22.472 61.9073 22.022 62.4953 21.71C63.0833 21.398 63.7433 21.242 64.4753 21.242C65.0633 21.242 65.6213 21.368 66.1493 21.62C66.6893 21.872 67.1093 22.22 67.4093 22.664L67.3373 23.258V15.068H68.9933V29H67.3193V27.146L67.4993 27.614C67.1513 28.07 66.7013 28.448 66.1493 28.748C65.5973 29.036 64.9673 29.18 64.2593 29.18ZM64.7813 27.758C65.2253 27.758 65.6213 27.68 65.9693 27.524C66.3173 27.356 66.6053 27.128 66.8333 26.84C67.0613 26.552 67.2233 26.21 67.3193 25.814V24.41C67.2233 24.05 67.0493 23.738 66.7973 23.474C66.5573 23.198 66.2633 22.982 65.9153 22.826C65.5793 22.658 65.2013 22.574 64.7813 22.574C64.3253 22.574 63.9053 22.688 63.5213 22.916C63.1493 23.132 62.8493 23.432 62.6213 23.816C62.3933 24.2 62.2793 24.644 62.2793 25.148C62.2793 25.64 62.3933 26.084 62.6213 26.48C62.8493 26.864 63.1553 27.176 63.5393 27.416C63.9233 27.644 64.3373 27.758 64.7813 27.758Z" fill="#F8F5EC"/>
</g>
</svg>
