<svg width="41" height="45" viewBox="0 0 41 45" fill="none" xmlns="http://www.w3.org/2000/svg">
<path d="M0.503595 0.00792943C0.503595 0.182377 0.495507 0.301318 0.503595 0.42026C0.810937 3.7189 1.11828 7.01755 1.41753 10.3241C1.83811 15.0025 2.25059 19.6808 2.67117 24.3513C3.14836 29.6006 3.63363 34.8419 4.09465 40.0912C4.127 40.4718 4.26449 40.6383 4.62845 40.7335C9.80475 42.1291 14.9649 43.5326 20.1412 44.9202C20.4889 45.0154 20.9095 45.0312 21.2573 44.9361C26.4498 43.5405 31.6341 42.1211 36.8266 40.7176C37.2229 40.6066 37.3604 40.4322 37.3928 40.0357C37.5545 38.0533 37.7486 36.063 37.9266 34.0807C38.2258 30.7979 38.517 27.5151 38.8162 24.2323C39.164 20.3786 39.5199 16.5329 39.8677 12.6792C40.1265 9.8087 40.4015 6.94618 40.6603 4.07573C40.7816 2.72772 40.8868 1.37972 41 0H0.503595V0.00792943ZM33.187 11.458C32.9201 14.3602 32.6532 17.2703 32.3863 20.1725C32.079 23.5108 31.7716 26.849 31.4643 30.1794C31.3753 31.1389 31.2459 32.0983 31.2217 33.0657C31.2055 33.5811 30.979 33.7159 30.5423 33.8349C27.4203 34.6595 24.3065 35.508 21.1926 36.3485C21.0551 36.3881 20.9257 36.4357 20.7882 36.4754C20.7397 36.4516 20.6911 36.4357 20.6345 36.4119C17.3023 35.5238 13.97 34.6278 10.6378 33.7239C10.5003 33.6842 10.3224 33.4701 10.3062 33.3195C10.0716 30.8455 9.86136 28.3715 9.6349 25.8499H14.7222C14.8112 26.8411 14.9082 27.8482 14.9891 28.8631C15.0619 29.7988 15.0538 29.7988 15.9516 30.0367C17.5611 30.4569 19.1787 30.8693 20.7882 31.2816L20.772 31.2419C22.5352 30.782 24.2984 30.3301 26.0615 29.8384C26.2233 29.7909 26.4093 29.5371 26.4336 29.3627C26.5387 28.6014 26.5953 27.8323 26.66 27.0711C26.7652 25.842 26.8703 24.6129 26.9836 23.3284H20.772L20.7882 23.2967C20.7478 23.2967 20.6992 23.2967 20.6588 23.2967H9.40035C9.24668 21.6553 9.10109 20.0297 8.94742 18.3566H20.6669C20.7073 18.3566 20.7558 18.3566 20.7963 18.3566L20.7801 18.3249H27.4365C27.5902 16.6201 27.7438 14.9549 27.8975 13.258H20.772L20.7882 13.2263C20.7478 13.2263 20.6992 13.2263 20.6588 13.2263C16.6714 13.2342 12.6841 13.2342 8.6967 13.2421C8.64008 13.2421 8.58346 13.2184 8.47832 13.1866C8.33274 11.569 8.17907 9.95143 8.03348 8.28625H20.6588C20.6992 8.28625 20.7478 8.28625 20.7882 8.28625L20.772 8.25453H33.4539C33.365 9.36466 33.276 10.4113 33.187 11.458Z" fill="#F28A62"/>
</svg>
