<svg width="46" height="45" viewBox="0 0 46 45" fill="none" xmlns="http://www.w3.org/2000/svg">
<path d="M0.3125 0C15.3226 0 30.3024 0 45.3125 0C45.3125 15.0101 45.3125 30.0203 45.3125 45C30.3327 45 15.3226 45 0.3125 45C0.3125 29.9595 0.3125 14.9797 0.3125 0ZM40.5725 23.8217C39.6609 22.181 38.4151 21.0567 36.6224 20.6617C35.3463 20.3579 34.0701 20.3579 32.7939 20.6313C28.6616 21.4821 26.8993 26.4652 29.5731 29.7772C30.5151 30.9318 31.7608 31.6307 33.0674 32.2384C34.222 32.7853 35.407 33.3018 36.5616 33.8791C37.3517 34.2741 37.6859 35.0034 37.5947 35.8845C37.5036 36.7657 36.8959 37.2519 36.1363 37.5253C34.4347 38.133 32.4597 37.5861 31.3051 36.158C31.062 35.8542 30.8189 35.5199 30.5758 35.1857C29.4212 35.8542 28.297 36.4922 27.1727 37.1607C27.8716 38.528 28.8439 39.6219 30.1808 40.3511C32.4597 41.5969 34.8601 41.7792 37.3213 41.1715C38.9317 40.7765 40.299 39.9561 41.1498 38.4673C42.7298 35.6415 41.8182 32.1168 39.0228 30.3849C37.777 29.6253 36.3793 29.1087 35.0728 28.4402C34.4347 28.106 33.7662 27.8022 33.2193 27.3768C32.247 26.5868 32.4293 25.0068 33.5232 24.3991C34.5866 23.7914 36.0755 24.156 36.8959 25.2194C37.0782 25.4321 37.1997 25.6752 37.382 25.9183C38.4151 25.2194 39.4786 24.5206 40.5725 23.8217ZM12.1626 37.6165C12.7703 38.923 13.6515 39.9561 14.8972 40.6246C16.5076 41.5057 18.27 41.6577 20.0627 41.3842C21.6731 41.1411 23.01 40.4119 23.8912 38.9534C24.6204 37.738 24.8331 36.4011 24.8331 34.973C24.8331 30.3545 24.8331 25.736 24.8331 21.1175C24.8331 20.9959 24.8331 20.844 24.8331 20.6921C23.405 20.6921 22.0377 20.6921 20.6096 20.6921C20.6096 20.8744 20.6096 21.0263 20.6096 21.2086C20.6096 25.7664 20.6096 30.2937 20.6096 34.8515C20.6096 35.2768 20.5792 35.7326 20.5184 36.158C20.3969 36.8569 20.0323 37.3734 19.3334 37.5861C18.0269 37.9811 16.9634 37.5861 16.2038 36.4618C16.0215 36.158 15.8392 35.8542 15.6265 35.5503C14.4415 36.2492 13.3172 36.9176 12.1626 37.6165Z" fill="#F28A62"/>
</svg>
