<svg xmlns="http://www.w3.org/2000/svg" xmlns:xlink="http://www.w3.org/1999/xlink" width="55" zoomAndPan="magnify" viewBox="0 0 41.25 30.000001" height="40" preserveAspectRatio="xMidYMid meet" version="1.2"><defs><clipPath id="498bcdc113"><path d="M 0.300781 0 L 39.496094 0 L 39.496094 29.03125 L 0.300781 29.03125 Z M 0.300781 0 "/></clipPath><clipPath id="382a8b0c91"><path d="M 0.300781 0 L 7 0 L 7 27 L 0.300781 27 Z M 0.300781 0 "/></clipPath><clipPath id="c78a4d6921"><path d="M 34 0 L 39.496094 0 L 39.496094 27 L 34 27 Z M 34 0 "/></clipPath><clipPath id="fc3c5f9346"><path d="M 7 24 L 33 24 L 33 29.03125 L 7 29.03125 Z M 7 24 "/></clipPath></defs><g id="f89469f511"><g clip-rule="nonzero" clip-path="url(#498bcdc113)"><rect x="0" width="41.25" y="0" height="30.000001" style="fill:#042639;fill-opacity:1;stroke:none;"/></g><g clip-rule="nonzero" clip-path="url(#382a8b0c91)"><path style=" stroke:none;fill-rule:nonzero;fill:#f8f5ec;fill-opacity:1;" d="M 5.980469 1.488281 L 6.023438 -0.0273438 C 5.902344 -0.03125 4.804688 -0.03125 3.878906 0.871094 C 3.082031 1.640625 2.683594 2.800781 2.683594 4.316406 C 2.683594 6.734375 2.722656 9.175781 2.722656 10.632812 C 2.722656 11.765625 1.457031 13.015625 0.265625 13.015625 C 1.457031 13.015625 2.722656 14.269531 2.722656 15.402344 C 2.722656 16.859375 2.683594 19.296875 2.683594 21.714844 C 2.683594 23.234375 3.082031 24.394531 3.878906 25.164062 C 4.804688 26.0625 5.902344 26.0625 6.023438 26.058594 L 5.980469 24.546875 C 5.808594 24.546875 4.195312 24.460938 4.195312 21.714844 C 4.195312 19.304688 4.203125 16.878906 4.238281 15.4375 C 4.261719 14.496094 3.867188 13.617188 3.21875 13.015625 C 3.867188 12.414062 4.261719 11.539062 4.238281 10.59375 C 4.203125 9.152344 4.195312 6.726562 4.195312 4.316406 C 4.195312 1.570312 5.808594 1.488281 5.980469 1.488281 Z M 5.980469 1.488281 "/></g><g clip-rule="nonzero" clip-path="url(#c78a4d6921)"><path style=" stroke:none;fill-rule:nonzero;fill:#f8f5ec;fill-opacity:1;" d="M 39.808594 13.015625 C 38.617188 13.015625 37.351562 11.765625 37.351562 10.632812 C 37.351562 9.175781 37.390625 6.734375 37.390625 4.316406 C 37.390625 2.800781 36.992188 1.640625 36.195312 0.871094 C 35.269531 -0.0273438 34.171875 -0.0273438 34.050781 -0.0273438 L 34.09375 1.488281 C 34.265625 1.488281 35.878906 1.570312 35.878906 4.316406 C 35.878906 6.730469 35.871094 9.152344 35.835938 10.59375 C 35.816406 11.539062 36.207031 12.414062 36.855469 13.015625 C 36.207031 13.617188 35.816406 14.496094 35.835938 15.4375 C 35.871094 16.878906 35.878906 19.304688 35.878906 21.714844 C 35.878906 24.464844 34.265625 24.546875 34.09375 24.546875 L 34.050781 26.058594 C 34.171875 26.0625 35.269531 26.0625 36.195312 25.164062 C 36.992188 24.394531 37.390625 23.234375 37.390625 21.714844 C 37.390625 19.296875 37.351562 16.859375 37.351562 15.402344 C 37.351562 14.269531 38.617188 13.015625 39.808594 13.015625 Z M 39.808594 13.015625 "/></g><path style=" stroke:none;fill-rule:nonzero;fill:#f28a62;fill-opacity:1;" d="M 7.121094 -0.0273438 L 32.953125 -0.0273438 L 32.953125 1.488281 L 7.121094 1.488281 Z M 7.121094 -0.0273438 "/><g clip-rule="nonzero" clip-path="url(#fc3c5f9346)"><path style=" stroke:none;fill-rule:nonzero;fill:#f28a62;fill-opacity:1;" d="M 7.121094 26.0625 L 15.976562 26.0625 L 15.53125 27.5625 L 13.355469 27.5625 L 12.597656 29.074219 L 26.972656 29.074219 L 26.214844 27.5625 L 24.039062 27.5625 L 23.59375 26.0625 L 32.953125 26.0625 L 32.953125 24.546875 L 7.121094 24.546875 Z M 7.121094 26.0625 "/></g><g style="fill:#f8f5ec;fill-opacity:1;"><g transform="translate(6.109701, 19.110942)"><path style="stroke:none" d="M 12.734375 -12.546875 L 12.734375 0.421875 L 12.6875 0.421875 L 3.46875 -8.9375 L 3.5 0 L 1.8125 0 L 1.8125 -12.9375 L 1.890625 -12.9375 L 11.09375 -3.46875 L 11.0625 -12.546875 Z M 12.734375 -12.546875 "/></g></g><g style="fill:#f8f5ec;fill-opacity:1;"><g transform="translate(20.650084, 19.110942)"><path style="stroke:none" d="M 11.640625 -1.078125 C 11.265625 -0.773438 10.664062 -0.492188 9.84375 -0.234375 C 9.03125 0.015625 8.28125 0.140625 7.59375 0.140625 C 6.28125 0.140625 5.125 -0.125 4.125 -0.65625 C 3.132812 -1.195312 2.367188 -1.9375 1.828125 -2.875 C 1.296875 -3.8125 1.03125 -4.867188 1.03125 -6.046875 C 1.03125 -7.410156 1.316406 -8.59375 1.890625 -9.59375 C 2.472656 -10.59375 3.253906 -11.359375 4.234375 -11.890625 C 5.222656 -12.421875 6.300781 -12.6875 7.46875 -12.6875 C 8.164062 -12.6875 8.828125 -12.601562 9.453125 -12.4375 C 10.078125 -12.269531 10.640625 -12.046875 11.140625 -11.765625 L 10.59375 -10.21875 C 10.21875 -10.425781 9.75 -10.609375 9.1875 -10.765625 C 8.625 -10.921875 8.117188 -11 7.671875 -11 C 6.703125 -11 5.84375 -10.800781 5.09375 -10.40625 C 4.34375 -10.019531 3.765625 -9.460938 3.359375 -8.734375 C 2.960938 -8.003906 2.765625 -7.15625 2.765625 -6.1875 C 2.765625 -5.28125 2.960938 -4.472656 3.359375 -3.765625 C 3.765625 -3.054688 4.335938 -2.507812 5.078125 -2.125 C 5.828125 -1.738281 6.675781 -1.546875 7.625 -1.546875 C 8.0625 -1.546875 8.488281 -1.585938 8.90625 -1.671875 C 9.320312 -1.765625 9.671875 -1.890625 9.953125 -2.046875 L 9.953125 -4.53125 L 7.453125 -4.53125 L 7.453125 -6.140625 L 11.640625 -6.140625 Z M 11.640625 -1.078125 "/></g></g></g></svg>