<svg xmlns="http://www.w3.org/2000/svg" xmlns:xlink="http://www.w3.org/1999/xlink" width="55" zoomAndPan="magnify" viewBox="0 0 41.25 30.000001" height="40" preserveAspectRatio="xMidYMid meet" version="1.2"><defs><clipPath id="e9db34939d"><path d="M 0.300781 0 L 40.222656 0 L 40.222656 29.03125 L 0.300781 29.03125 Z M 0.300781 0 "/></clipPath><clipPath id="c3976ac0a8"><path d="M 0.300781 0 L 7 0 L 7 27 L 0.300781 27 Z M 0.300781 0 "/></clipPath><clipPath id="89637e6c5f"><path d="M 34 0 L 40.015625 0 L 40.015625 27 L 34 27 Z M 34 0 "/></clipPath><clipPath id="fe04b0253e"><path d="M 7 24 L 34 24 L 34 29.03125 L 7 29.03125 Z M 7 24 "/></clipPath><clipPath id="2014e80365"><path d="M 1 0.503906 L 13 0.503906 L 13 14 L 1 14 Z M 1 0.503906 "/></clipPath><clipPath id="33c11b8bc4"><path d="M 15 0.503906 L 27 0.503906 L 27 14 L 15 14 Z M 15 0.503906 "/></clipPath><clipPath id="51283bf439"><rect x="0" width="28" y="0" height="19"/></clipPath></defs><g id="2ada6d5d56"><g clip-rule="nonzero" clip-path="url(#e9db34939d)"><rect x="0" width="41.25" y="0" height="30.000001" style="fill:#f28a62;fill-opacity:1;stroke:none;"/></g><g clip-rule="nonzero" clip-path="url(#c3976ac0a8)"><path style=" stroke:none;fill-rule:nonzero;fill:#f8f5ec;fill-opacity:1;" d="M 6.015625 1.5 L 6.054688 -0.0234375 C 5.933594 -0.0273438 4.832031 -0.0273438 3.898438 0.878906 C 3.101562 1.652344 2.699219 2.816406 2.699219 4.34375 C 2.699219 6.773438 2.738281 9.226562 2.738281 10.691406 C 2.738281 11.828125 1.464844 13.085938 0.269531 13.085938 C 1.464844 13.085938 2.738281 14.34375 2.738281 15.480469 C 2.738281 16.945312 2.699219 19.398438 2.699219 21.828125 C 2.699219 23.355469 3.101562 24.519531 3.898438 25.292969 C 4.832031 26.199219 5.933594 26.199219 6.054688 26.195312 L 6.015625 24.671875 C 5.839844 24.671875 4.21875 24.589844 4.21875 21.828125 C 4.21875 19.40625 4.226562 16.96875 4.261719 15.519531 C 4.285156 14.574219 3.886719 13.691406 3.238281 13.085938 C 3.886719 12.480469 4.285156 11.597656 4.261719 10.652344 C 4.226562 9.203125 4.21875 6.765625 4.21875 4.34375 C 4.21875 1.582031 5.839844 1.5 6.015625 1.5 Z M 6.015625 1.5 "/></g><g clip-rule="nonzero" clip-path="url(#89637e6c5f)"><path style=" stroke:none;fill-rule:nonzero;fill:#f8f5ec;fill-opacity:1;" d="M 40.015625 13.085938 C 38.816406 13.085938 37.542969 11.828125 37.542969 10.691406 C 37.542969 9.226562 37.582031 6.773438 37.582031 4.34375 C 37.582031 2.816406 37.179688 1.652344 36.382812 0.878906 C 35.449219 -0.0273438 34.347656 -0.0273438 34.226562 -0.0234375 L 34.265625 1.5 C 34.441406 1.5 36.0625 1.582031 36.0625 4.34375 C 36.0625 6.765625 36.054688 9.203125 36.019531 10.652344 C 35.996094 11.597656 36.394531 12.480469 37.042969 13.085938 C 36.394531 13.691406 35.996094 14.574219 36.019531 15.519531 C 36.054688 16.96875 36.0625 19.40625 36.0625 21.828125 C 36.0625 24.589844 34.441406 24.671875 34.265625 24.671875 L 34.226562 26.195312 C 34.347656 26.199219 35.449219 26.199219 36.382812 25.292969 C 37.179688 24.523438 37.582031 23.355469 37.582031 21.828125 C 37.582031 19.398438 37.542969 16.945312 37.542969 15.480469 C 37.542969 14.34375 38.816406 13.085938 40.015625 13.085938 Z M 40.015625 13.085938 "/></g><path style=" stroke:none;fill-rule:nonzero;fill:#042639;fill-opacity:1;" d="M 7.160156 -0.0234375 L 33.125 -0.0234375 L 33.125 1.5 L 7.160156 1.5 Z M 7.160156 -0.0234375 "/><g clip-rule="nonzero" clip-path="url(#fe04b0253e)"><path style=" stroke:none;fill-rule:nonzero;fill:#042639;fill-opacity:1;" d="M 7.160156 26.195312 L 16.058594 26.195312 L 15.613281 27.703125 L 13.425781 27.703125 L 12.664062 29.226562 L 27.109375 29.226562 L 26.347656 27.703125 L 24.164062 27.703125 L 23.714844 26.195312 L 33.125 26.195312 L 33.125 24.675781 L 7.160156 24.675781 Z M 7.160156 26.195312 "/></g><g transform="matrix(1,0,0,1,6,6)"><g clip-path="url(#51283bf439)"><g clip-rule="nonzero" clip-path="url(#2014e80365)"><g style="fill:#042639;fill-opacity:1;"><g transform="translate(0.109701, 13.564598)"><path style="stroke:none" d="M 12.734375 -12.546875 L 12.734375 0.421875 L 12.6875 0.421875 L 3.46875 -8.9375 L 3.5 0 L 1.8125 0 L 1.8125 -12.9375 L 1.890625 -12.9375 L 11.09375 -3.46875 L 11.0625 -12.546875 Z M 12.734375 -12.546875 "/></g></g></g><g clip-rule="nonzero" clip-path="url(#33c11b8bc4)"><g style="fill:#042639;fill-opacity:1;"><g transform="translate(14.652254, 13.564598)"><path style="stroke:none" d="M 11.640625 -1.078125 C 11.265625 -0.773438 10.664062 -0.492188 9.84375 -0.234375 C 9.03125 0.015625 8.28125 0.140625 7.59375 0.140625 C 6.28125 0.140625 5.125 -0.125 4.125 -0.65625 C 3.132812 -1.195312 2.367188 -1.9375 1.828125 -2.875 C 1.296875 -3.8125 1.03125 -4.867188 1.03125 -6.046875 C 1.03125 -7.410156 1.316406 -8.59375 1.890625 -9.59375 C 2.472656 -10.59375 3.253906 -11.359375 4.234375 -11.890625 C 5.222656 -12.421875 6.300781 -12.6875 7.46875 -12.6875 C 8.164062 -12.6875 8.828125 -12.601562 9.453125 -12.4375 C 10.078125 -12.269531 10.640625 -12.046875 11.140625 -11.765625 L 10.59375 -10.21875 C 10.21875 -10.425781 9.75 -10.609375 9.1875 -10.765625 C 8.625 -10.921875 8.117188 -11 7.671875 -11 C 6.703125 -11 5.84375 -10.800781 5.09375 -10.40625 C 4.34375 -10.019531 3.765625 -9.460938 3.359375 -8.734375 C 2.960938 -8.003906 2.765625 -7.15625 2.765625 -6.1875 C 2.765625 -5.28125 2.960938 -4.472656 3.359375 -3.765625 C 3.765625 -3.054688 4.335938 -2.507812 5.078125 -2.125 C 5.828125 -1.738281 6.675781 -1.546875 7.625 -1.546875 C 8.0625 -1.546875 8.488281 -1.585938 8.90625 -1.671875 C 9.320312 -1.765625 9.671875 -1.890625 9.953125 -2.046875 L 9.953125 -4.53125 L 7.453125 -4.53125 L 7.453125 -6.140625 L 11.640625 -6.140625 Z M 11.640625 -1.078125 "/></g></g></g></g></g></g></svg>