<svg width="46" height="45" viewBox="0 0 46 45" fill="none" xmlns="http://www.w3.org/2000/svg">
<g clip-path="url(#clip0_2297_3849)">
<path d="M6.425 7.35156V37.7266C2.75 33.6766 0.5 28.3516 0.5 22.5016C0.5 16.6516 2.75 11.3266 6.425 7.35156Z" fill="#F28A62"/>
<path d="M8.82812 10.6484L21.8031 36.6734H8.82812V10.6484Z" fill="#F28A62"/>
<path d="M23 33.7492L10.25 8.32422H35.75L23 33.7492Z" fill="#F28A62"/>
<path d="M23.0016 0C28.8516 0 34.1766 2.25 38.1516 5.925H7.85156C11.8266 2.25 17.1516 0 23.0016 0Z" fill="#F28A62"/>
<path d="M37.1781 36.6734H24.2031L37.1781 10.6484V36.6734Z" fill="#F28A62"/>
<path d="M38.1516 39.0742C34.1766 42.7492 28.8516 44.9992 23.0016 44.9992C17.1516 44.9992 11.8266 42.7492 7.85156 39.0742H38.1516Z" fill="#F28A62"/>
<path d="M39.5781 37.6516V7.35156C43.2531 11.3266 45.5031 16.6516 45.5031 22.5016C45.5031 28.3516 43.2531 33.6766 39.5781 37.6516Z" fill="#F28A62"/>
<path d="M8.82812 10.6484L21.8031 36.6734H8.82812V10.6484Z" fill="#F28A62"/>
<path d="M23 33.7492L10.25 8.32422H35.75L23 33.7492Z" fill="#F28A62"/>
<path d="M24.2031 36.6734L37.1781 10.6484V36.6734H24.2031Z" fill="#F28A62"/>
<path d="M10.25 8.32422H35.75L23 33.7492L10.25 8.32422Z" fill="#F28A62"/>
</g>
<defs>
<clipPath id="clip0_2297_3849">
<rect width="45" height="45" fill="white" transform="translate(0.5)"/>
</clipPath>
</defs>
</svg>
