<svg width="49" height="45" viewBox="0 0 49 45" fill="none" xmlns="http://www.w3.org/2000/svg">
<path fill-rule="evenodd" clip-rule="evenodd" d="M47.5656 11.8229L43.3042 17.7812L39.0429 11.8229H41.3663C41.1892 7.39583 37.5322 3.85417 33.0624 3.85417C29.2908 3.85417 26.0922 6.38542 25.0815 9.83333C23.8521 9.4375 22.581 9.1875 21.2891 9.07292C21.4349 8.52083 21.6225 7.96875 21.8517 7.4375C22.4664 5.98958 23.3416 4.6875 24.4564 3.57292C25.5712 2.45833 26.8736 1.57292 28.3218 0.96875C29.8222 0.322917 31.4163 0 33.0624 0C34.7086 0 36.3027 0.322917 37.8031 0.958333C39.2513 1.57292 40.5537 2.44792 41.6685 3.5625C42.7833 4.67708 43.6585 5.97917 44.2732 7.42708C44.8671 8.82292 45.1901 10.3021 45.2213 11.8229H47.5656Z" fill="#F28A62"/>
<path fill-rule="evenodd" clip-rule="evenodd" d="M41.6047 44.9987V42.4362H26.9141C27.0183 42.3841 27.1224 42.3424 27.2266 42.2904C28.8207 41.5299 30.2898 40.5404 31.6026 39.332C31.7797 39.1654 31.9464 39.0091 32.1027 38.8529C32.2798 38.6758 32.4673 38.4883 32.6445 38.2904C32.8528 38.0612 33.0612 37.8216 33.2488 37.582H41.6047V35.0195L48.5854 40.0091L41.6047 44.9987Z" fill="#F28A62"/>
<path fill-rule="evenodd" clip-rule="evenodd" d="M36.1848 26.4909C36.1848 28.7096 35.7472 30.8659 34.8929 32.8971C34.1635 34.6263 33.1425 36.2096 31.8714 37.5951C31.7047 37.7721 31.538 37.9492 31.3713 38.1263C31.215 38.2826 31.0587 38.4284 30.9024 38.5846C29.673 39.7201 28.2977 40.6471 26.7974 41.3659C26.589 41.4701 26.3702 41.5638 26.1514 41.6576C26.141 41.6576 26.141 41.668 26.1305 41.668C24.8803 42.1992 23.5362 42.4596 22.1714 42.4596H0.5V37.6159H20.6189C26.7036 37.6159 31.6943 32.7513 31.7776 26.668C31.7776 26.6159 31.7776 26.5638 31.7776 26.5117C31.7776 19.8659 26.3806 14.4701 19.7333 14.4701C13.0861 14.4492 7.68906 19.8346 7.68906 26.4909H10.4813L5.49066 33.4701L0.5 26.4909H3.29227C3.29227 24.2721 3.72987 22.1159 4.58422 20.0846C5.41773 18.1263 6.59507 16.3659 8.10581 14.8555C9.61656 13.3451 11.3774 12.1576 13.3361 11.3346C15.3678 10.4805 17.5245 10.043 19.7437 10.043C20.1918 10.043 20.6294 10.0638 21.067 10.0951C22.3589 10.1992 23.6196 10.4492 24.849 10.8555C25.2866 11.0013 25.7138 11.1576 26.141 11.3451C28.0997 12.1784 29.8605 13.3555 31.3713 14.8659C32.882 16.3763 34.0698 18.1367 34.8929 20.0951C35.7472 22.1159 36.1848 24.2721 36.1848 26.4909Z" fill="#F28A62"/>
</svg>
