<svg width="46" height="45" viewBox="0 0 46 45" fill="none" xmlns="http://www.w3.org/2000/svg">
<path d="M44.8824 20.5179L25.2086 0.844209C24.083 -0.281403 22.2233 -0.281403 21.0977 0.844209L17.0357 4.9062L22.2233 10.0938C23.4468 9.70228 24.8171 9.94698 25.747 10.9258C26.7257 11.9046 26.9704 13.2749 26.5789 14.4984L31.5708 19.4902C32.7943 19.0987 34.1646 19.3434 35.1434 20.3222C36.5137 21.6436 36.5137 23.8458 35.1434 25.2162C33.7731 26.5865 31.6197 26.5865 30.2494 25.2162C29.2217 24.1884 28.977 22.7202 29.5153 21.4478L24.866 16.7985V29.0334C25.2086 29.1803 25.5023 29.425 25.7959 29.6697C27.1662 30.991 27.1662 33.1933 25.7959 34.5636C24.4256 35.885 22.2722 35.885 20.9019 34.5636C19.5316 33.1933 19.5316 31.04 20.9019 29.6697C21.2445 29.3271 21.636 29.0824 22.0275 28.9356V16.5538C21.636 16.407 21.2445 16.1134 20.9019 15.8197C19.8742 14.792 19.6295 13.3238 20.1678 12.0514L15.0292 6.96166L1.57077 20.4201C0.44516 21.5457 0.44516 23.4054 1.57077 24.531L21.1956 44.1558C22.3212 45.2814 24.1809 45.2814 25.3065 44.1558L44.8334 24.6289C46.008 23.4543 46.008 21.6436 44.8824 20.5179Z" fill="#F28A62"/>
</svg>
