
<svg width="508" height="100" viewBox="0 0 508 100" fill="none" xmlns="http://www.w3.org/2000/svg">
<g clip-path="url(#clip0_1795_4498)">
<path d="M84.5366 59.1732C87.0626 73.3942 72.4691 83.6857 55.1184 80.3061C37.7678 76.9265 18.7603 62.5807 21.1827 46.8328C23.4016 32.408 37.7512 24.289 48.5709 26.3965C65.9215 29.7761 81.3745 41.3702 84.5366 59.1732Z" fill="#F28A62" fill-opacity="0.12"/>
<path d="M35 39.0423C35 47.2266 44.3377 57.1965 51.7174 63C58.1935 57.6429 67.6064 49.0866 68.2842 39.0423C68.796 31.4564 62.3352 21.7806 51.7174 22.0038C38.9911 22.2713 35 32.2715 35 39.0423Z" fill="#F8F5EC"/>
<path d="M55.5319 37.1473C55.4642 39.3487 53.7087 41.0823 51.6109 41.0194C49.5131 40.9565 47.8673 39.1208 47.9351 36.9194C48.0028 34.718 49.7584 32.9843 51.8562 33.0473C53.954 33.1102 55.5997 34.9458 55.5319 37.1473Z" fill="#F28A62"/>
<path d="M57.9378 65C64.7553 68.6522 59.1052 72 51.5747 72C44.0442 72 38.3941 68.3478 44.7571 65" stroke="#F8F5EC" stroke-width="2" stroke-linecap="round"/>
</g>
<defs>
<clipPath id="clip0_1795_4498">
<rect width="508" height="100" rx="5" fill="white"/>
</clipPath>
</defs>
</svg>

