<svg xmlns="http://www.w3.org/2000/svg" version="1.1" xmlns:xlink="http://www.w3.org/1999/xlink" viewBox="0 0 2.8566650390625 3.0298199374105343"><g transform="matrix(0.8571428571428572,0,0,0.8571428571428572,0.40809500558035694,1.6964995819481745)"><rect width="3.5059307772542843" height="3.5059307772542843" x="-0.5626882890177671" y="-1.9648199374105342" fill="#f28a62"></rect><g transform="matrix(1,0,0,1,0,0)" clip-path="url(#SvgjsClipPath176324)"><g clip-path="url(#SvgjsClipPath176319868c014b-5407-4a6f-afc4-578ffcadfa40)"><path d=" M 0.24336089200062816 -1.4242652138207779 L 0.24513155484565155 -1.488690100412783 C 0.23998053566012895 -1.4888510697623307 0.19326846864718653 -1.4888510697623307 0.15381240462154283 -1.45052179118352 C 0.11999026783006445 -1.4178264398388747 0.10291513452036333 -1.3683840850124522 0.10291513452036333 -1.3037982290708994 C 0.10291513452036333 -1.200883094550536 0.10468579736538672 -1.0970145261905446 0.10468579736538672 -1.0349917975840959 C 0.10468579736538672 -0.9868495798117115 0.050730109622803166 -0.9335253872096609 -1.868845097840676e-17 -0.9335253872096609 C 0.050730109622803166 -0.9335253872096609 0.10468579736538672 -0.8802011946076101 0.10468579736538672 -0.8320589768352258 C 0.10468579736538672 -0.7700362482287769 0.10291513452036333 -0.6661676798687856 0.10291513452036333 -0.5632525453484223 C 0.10291513452036333 -0.49866668940686953 0.11999026783006445 -0.44922433458044697 0.15381240462154283 -0.4165289832358017 C 0.19327465977601527 -0.37819970465699115 0.239980535660129 -0.37819970465699115 0.24513155484565155 -0.3783606740065386 L 0.24336089200062816 -0.44278556059854357 C 0.2359501107926106 -0.44278556059854357 0.1673400211123684 -0.4463268862885903 0.1673400211123684 -0.5632587364772509 C 0.1673400211123684 -0.6658519322985191 0.16766195981146353 -0.7690890055179775 0.16911068395739182 -0.8304554744685785 C 0.17007650005467728 -0.8705616070212413 0.1533233054440713 -0.9079250695027664 0.12578516441377735 -0.9335315783384895 C 0.1533233054440713 -0.9591380871742125 0.17007650005467728 -0.9965077407845664 0.16911068395739182 -1.0366076822084005 C 0.1676619598114636 -1.0979741511590015 0.1673400211123684 -1.20121122437846 0.1673400211123684 -1.303804420199728 C 0.1673400211123684 -1.4207238881307311 0.2359501107926106 -1.4242652138207779 0.24336089200062816 -1.4242652138207779 Z" fill="#f8f5ec" transform="matrix(1,0,0,1,0,0)" fill-rule="nonzero"></path></g><g clip-path="url(#SvgjsClipPath176319868c014b-5407-4a6f-afc4-578ffcadfa40)"><path d=" M 1.6833060172496894 -0.9335191960808321 C 1.6325759076268862 -0.9335191960808321 1.5786202198843027 -0.9868433886828828 1.5786202198843027 -1.0349856064552674 C 1.5786202198843027 -1.0970083350617164 1.580390882729326 -1.2008769034217075 1.580390882729326 -1.3037920379420709 C 1.580390882729326 -1.3683778938836235 1.563315749419625 -1.4178202487100462 1.5294936126281466 -1.4505156000546915 C 1.4900313574736743 -1.488844878633502 1.4433254815895606 -1.488844878633502 1.4381744624040378 -1.4886839092839546 L 1.4399451252490614 -1.4242590226919494 C 1.4473559064570787 -1.4242590226919494 1.515965996137321 -1.4207176970019024 1.515965996137321 -1.3037858468132422 C 1.515965996137321 -1.201192650991974 1.5156440574382257 -1.0979555777725154 1.5141953332922977 -1.0365891088219144 C 1.513229517195012 -0.9964829762692515 1.529982711805618 -0.9591195137877265 1.557520852835912 -0.9335130049520034 C 1.529982711805618 -0.9079064961162805 1.513229517195012 -0.8705368425059266 1.5141953332922977 -0.8304369010820924 C 1.5156440574382257 -0.7690704321314913 1.515965996137321 -0.6658333589120329 1.515965996137321 -0.5632401630907649 C 1.515965996137321 -0.4463083129021044 1.4473559064570787 -0.44276698721205765 1.4399451252490614 -0.44276698721205765 L 1.4381744624040378 -0.3783421006200527 C 1.4433254815895606 -0.3781811312705048 1.4900375486025028 -0.3781811312705048 1.5294936126281466 -0.41651040984931553 C 1.563315749419625 -0.44920576119396083 1.580390882729326 -0.4986481160203835 1.580390882729326 -0.563233971961936 C 1.580390882729326 -0.6661491064822994 1.5786202198843027 -0.7700176748422909 1.5786202198843027 -0.8320404034487398 C 1.5786202198843031 -0.8801888123499526 1.6325759076268864 -0.9335191960808321 1.6833060172496894 -0.9335191960808321 Z" fill="#f8f5ec" transform="matrix(1,0,0,1,0,0)" fill-rule="nonzero"></path></g><g clip-path="url(#SvgjsClipPath176319868c014b-5407-4a6f-afc4-578ffcadfa40)"><path d=" M 0.29183123960093643 -1.4887086737992694 L 1.3914747776487533 -1.4887086737992694 L 1.3914747776487533 -1.4242837872072642 L 0.29183123960093643 -1.4242837872072642 Z" fill="#042639" transform="matrix(1,0,0,1,0,0)" fill-rule="nonzero"></path></g><g clip-path="url(#SvgjsClipPath176319868c014b-5407-4a6f-afc4-578ffcadfa40)"><path d=" M 0.29183123960093643 -0.378298762718251 L 0.6687781183395709 -0.378298762718251 L 0.6498580286389015 -0.31442488659200496 L 0.5572758881337272 -0.31442488659200496 L 0.5250386803224095 -0.24999999999999978 L 1.1368274577933077 -0.24999999999999978 L 1.1045902499819904 -0.31442488659200496 L 1.012008109476816 -0.31442488659200496 L 0.9930880197761464 -0.378298762718251 L 1.3914747776487533 -0.378298762718251 L 1.3914747776487533 -0.4427236493102562 L 0.29183123960093643 -0.4427236493102562 Z" fill="#042639" transform="matrix(1,0,0,1,0,0)" fill-rule="nonzero"></path></g></g><g><path d=" M 1.038 0.00749999999999984 L 1.038 1.0574999999999999 L 0.975 1.0574999999999999 L 0.2595 0.14549999999999985 L 0.2595 1.0574999999999999 L 0.183 1.0574999999999999 L 0.183 0.00749999999999984 L 0.2475 0.00749999999999984 L 0.9615 0.9194999999999999 L 0.9615 0.00749999999999984 L 1.038 0.00749999999999984 M 2.154038818359375 0.5369999999999999 L 2.227538818359375 0.5369999999999999 L 2.227538818359375 0.9299999999999999 Q 2.158538818359375 0.9959999999999999 2.060288818359375 1.0305 Q 1.962038818359375 1.065 1.852538818359375 1.065 Q 1.696538818359375 1.065 1.571288818359375 0.9959999999999999 Q 1.446038818359375 0.9269999999999998 1.374788818359375 0.8054999999999999 Q 1.303538818359375 0.6839999999999999 1.303538818359375 0.5324999999999999 Q 1.303538818359375 0.3809999999999999 1.374788818359375 0.25949999999999984 Q 1.446038818359375 0.1379999999999999 1.571288818359375 0.06899999999999984 Q 1.696538818359375 -2.220446049250313e-16 1.854038818359375 -2.220446049250313e-16 Q 1.969538818359375 -2.220446049250313e-16 2.066288818359375 0.03674999999999984 Q 2.163038818359375 0.0734999999999999 2.232038818359375 0.1439999999999999 L 2.184038818359375 0.19499999999999984 Q 2.1180388183593752 0.1289999999999999 2.036288818359375 0.0997499999999999 Q 1.954538818359375 0.0704999999999999 1.855538818359375 0.0704999999999999 Q 1.720538818359375 0.0704999999999999 1.611788818359375 0.13049999999999984 Q 1.503038818359375 0.1904999999999999 1.441538818359375 0.2962499999999999 Q 1.380038818359375 0.4019999999999999 1.380038818359375 0.5324999999999999 Q 1.380038818359375 0.6614999999999999 1.442288818359375 0.7672499999999999 Q 1.504538818359375 0.8729999999999999 1.612538818359375 0.9337499999999999 Q 1.720538818359375 0.9944999999999999 1.855538818359375 0.9944999999999999 Q 2.035538818359375 0.9944999999999999 2.154038818359375 0.8984999999999999 L 2.154038818359375 0.5369999999999999" fill="#262626" fill-rule="nonzero"></path></g><g></g></g><defs><clipPath id="SvgjsClipPath176324"><path d=" M 0 -1.4887090975667843 h 1.6833060172496894 v 1.2387090975667843 h -1.6833060172496894 Z"></path></clipPath><clipPath id="SvgjsClipPath176319868c014b-5407-4a6f-afc4-578ffcadfa40"><path d=" M 0 -1.4887090975667843 L 1.6833060172496894 -1.4887090975667843 L 1.6833060172496894 -0.25 L 0 -0.25 Z"></path></clipPath></defs></svg>