<svg width="65" height="100" viewBox="0 0 65 100" fill="none" xmlns="http://www.w3.org/2000/svg">
<path fill-rule="evenodd" clip-rule="evenodd" d="M62.7385 23.7639L57.0567 31.7083L51.3749 23.7639H54.4728C54.2367 17.8611 49.3606 13.1389 43.401 13.1389C38.3721 13.1389 34.1073 16.5139 32.7598 21.1111C31.1205 20.5833 29.4257 20.25 27.7031 20.0972C27.8976 19.3611 28.1477 18.625 28.4533 17.9167C29.2729 15.9861 30.4398 14.25 31.9263 12.7639C33.4127 11.2778 35.1492 10.0972 37.0802 9.29167C39.0806 8.43056 41.206 8 43.401 8C45.5959 8 47.7213 8.43056 49.7218 9.27778C51.6528 10.0972 53.3892 11.2639 54.8757 12.75C56.3621 14.2361 57.529 15.9722 58.3487 17.9028C59.1405 19.7639 59.5711 21.7361 59.6128 23.7639H62.7385Z" fill="#F28A62"/>
<path fill-rule="evenodd" clip-rule="evenodd" d="M54.7985 68.0009V64.5842H35.2109C35.3499 64.5148 35.4888 64.4592 35.6277 64.3898C37.7532 63.3759 39.7119 62.0564 41.4623 60.4453C41.6985 60.2231 41.9207 60.0148 42.1291 59.8064C42.3653 59.5703 42.6153 59.3203 42.8515 59.0564C43.1293 58.7509 43.4072 58.4314 43.6572 58.112H54.7985V54.6953L64.1061 61.3481L54.7985 68.0009Z" fill="#F28A62"/>
<path fill-rule="evenodd" clip-rule="evenodd" d="M47.5719 43.3212C47.5719 46.2795 46.9885 49.1545 45.8493 51.8628C44.8769 54.1684 43.5155 56.2795 41.8207 58.1267C41.5984 58.3629 41.3762 58.599 41.1539 58.8351C40.9455 59.0434 40.7371 59.2379 40.5287 59.4462C38.8895 60.9601 37.0558 62.1962 35.0553 63.1545C34.7775 63.2934 34.4858 63.4184 34.194 63.5434C34.1801 63.5434 34.1801 63.5573 34.1663 63.5573C32.4992 64.2656 30.7072 64.6129 28.8873 64.6129H-0.0078125V58.1545H26.8174C34.9303 58.1545 41.5845 51.6684 41.6957 43.5573C41.6957 43.4878 41.6957 43.4184 41.6957 43.349C41.6957 34.4878 34.4997 27.2934 25.6366 27.2934C16.7736 27.2656 9.5776 34.4462 9.5776 43.3212H13.3006L6.64641 52.6267L-0.0078125 43.3212H3.71522C3.71522 40.3628 4.29868 37.4878 5.43781 34.7795C6.54916 32.1684 8.11895 29.8212 10.1333 27.8073C12.1476 25.7934 14.4953 24.2101 17.107 23.1128C19.8159 21.974 22.6915 21.3906 25.6505 21.3906C26.2479 21.3906 26.8313 21.4184 27.4148 21.4601C29.1374 21.599 30.8183 21.9323 32.4576 22.474C33.041 22.6684 33.6106 22.8767 34.1801 23.1267C36.7918 24.2378 39.1396 25.8073 41.1539 27.8212C43.1682 29.8351 44.7519 32.1823 45.8493 34.7934C46.9885 37.4878 47.5719 40.3628 47.5719 43.3212Z" fill="#F28A62"/>
<path d="M15.1509 83.308C14.7069 83.08 14.2209 82.882 13.6929 82.714C13.1649 82.546 12.6489 82.462 12.1449 82.462C11.4489 82.462 10.8909 82.624 10.4709 82.948C10.0629 83.272 9.85888 83.704 9.85888 84.244C9.85888 84.652 9.99088 85 10.2549 85.288C10.5189 85.564 10.8669 85.804 11.2989 86.008C11.7309 86.212 12.1809 86.404 12.6489 86.584C13.0569 86.74 13.4589 86.914 13.8549 87.106C14.2509 87.298 14.6049 87.538 14.9169 87.826C15.2409 88.114 15.4929 88.468 15.6729 88.888C15.8649 89.308 15.9609 89.83 15.9609 90.454C15.9609 91.138 15.7869 91.762 15.4389 92.326C15.1029 92.89 14.6169 93.334 13.9809 93.658C13.3449 93.982 12.5889 94.144 11.7129 94.144C11.1369 94.144 10.5849 94.078 10.0569 93.946C9.54088 93.814 9.06088 93.646 8.61688 93.442C8.17288 93.226 7.77688 93.004 7.42888 92.776L8.20288 91.408C8.49088 91.612 8.82088 91.81 9.19287 92.002C9.56488 92.182 9.95488 92.332 10.3629 92.452C10.7709 92.56 11.1669 92.614 11.5509 92.614C11.9589 92.614 12.3609 92.542 12.7569 92.398C13.1649 92.242 13.5009 92.008 13.7649 91.696C14.0289 91.384 14.1609 90.97 14.1609 90.454C14.1609 90.01 14.0409 89.644 13.8009 89.356C13.5729 89.056 13.2669 88.804 12.8829 88.6C12.4989 88.384 12.0909 88.192 11.6589 88.024C11.2509 87.868 10.8369 87.7 10.4169 87.52C9.99688 87.328 9.60688 87.1 9.24688 86.836C8.88688 86.56 8.59888 86.224 8.38288 85.828C8.16688 85.432 8.05888 84.952 8.05888 84.388C8.05888 83.704 8.22088 83.11 8.54488 82.606C8.88088 82.09 9.33688 81.688 9.91288 81.4C10.4889 81.1 11.1489 80.938 11.8929 80.914C12.7329 80.914 13.4709 81.016 14.1069 81.22C14.7549 81.424 15.3249 81.676 15.8169 81.976L15.1509 83.308ZM24.5294 93.316C24.1934 93.58 23.7914 93.79 23.3234 93.946C22.8554 94.102 22.3874 94.18 21.9194 94.18C21.1034 94.18 20.3894 94.018 19.7774 93.694C19.1654 93.37 18.6854 92.92 18.3374 92.344C18.0014 91.756 17.8334 91.066 17.8334 90.274C17.8334 89.482 18.0134 88.792 18.3734 88.204C18.7454 87.616 19.2254 87.166 19.8134 86.854C20.4134 86.53 21.0554 86.368 21.7394 86.368C22.3394 86.368 22.8734 86.452 23.3414 86.62C23.8214 86.788 24.2294 87.016 24.5654 87.304L23.7374 88.384C23.5214 88.216 23.2574 88.066 22.9454 87.934C22.6334 87.802 22.2794 87.736 21.8834 87.736C21.4514 87.736 21.0494 87.85 20.6774 88.078C20.3174 88.294 20.0294 88.594 19.8134 88.978C19.6094 89.362 19.5074 89.794 19.5074 90.274C19.5074 90.73 19.6154 91.156 19.8314 91.552C20.0474 91.936 20.3474 92.242 20.7314 92.47C21.1154 92.686 21.5534 92.794 22.0454 92.794C22.3694 92.794 22.6634 92.746 22.9274 92.65C23.2034 92.554 23.4494 92.422 23.6654 92.254L24.5294 93.316ZM28.1844 86.548L28.3464 88.708L28.2564 88.42C28.4484 87.964 28.7244 87.58 29.0844 87.268C29.4564 86.944 29.8404 86.698 30.2364 86.53C30.6444 86.35 30.9984 86.26 31.2984 86.26L31.2084 87.916C30.6444 87.88 30.1464 87.988 29.7144 88.24C29.2944 88.492 28.9584 88.828 28.7064 89.248C28.4664 89.668 28.3464 90.118 28.3464 90.598V94H26.6904V86.548H28.1844ZM35.816 94.288C35.144 94.288 34.586 94.084 34.142 93.676C33.71 93.256 33.482 92.716 33.458 92.056V86.548H35.132V91.462C35.156 91.87 35.27 92.2 35.474 92.452C35.69 92.704 36.026 92.836 36.482 92.848C36.902 92.848 37.274 92.728 37.598 92.488C37.934 92.236 38.204 91.9 38.408 91.48C38.612 91.048 38.714 90.562 38.714 90.022V86.548H40.388V94H38.858L38.714 92.164L38.804 92.488C38.66 92.836 38.438 93.148 38.138 93.424C37.85 93.688 37.508 93.898 37.112 94.054C36.716 94.21 36.284 94.288 35.816 94.288ZM44.7782 86.548L44.9222 88.222L44.8502 88.078C45.1262 87.514 45.5162 87.07 46.0202 86.746C46.5362 86.422 47.1242 86.26 47.7842 86.26C48.2042 86.26 48.5762 86.326 48.9002 86.458C49.2242 86.59 49.4882 86.782 49.6922 87.034C49.9082 87.274 50.0462 87.574 50.1062 87.934L50.0162 87.988C50.3042 87.448 50.7002 87.028 51.2042 86.728C51.7202 86.416 52.2602 86.26 52.8242 86.26C53.5562 86.26 54.1322 86.47 54.5522 86.89C54.9842 87.298 55.2062 87.832 55.2182 88.492V94H53.5442V89.086C53.5322 88.702 53.4362 88.384 53.2562 88.132C53.0882 87.868 52.7882 87.724 52.3562 87.7C51.9242 87.7 51.5342 87.832 51.1862 88.096C50.8502 88.36 50.5862 88.702 50.3942 89.122C50.2022 89.53 50.1002 89.974 50.0882 90.454V94H48.4142V89.086C48.4022 88.702 48.3002 88.384 48.1082 88.132C47.9282 87.868 47.6222 87.724 47.1902 87.7C46.7462 87.7 46.3562 87.832 46.0202 88.096C45.6842 88.36 45.4202 88.702 45.2282 89.122C45.0482 89.542 44.9582 89.992 44.9582 90.472V94H43.2842V86.548H44.7782Z" fill="#F28A62"/>
</svg>
