<svg width="46" height="45" viewBox="0 0 46 45" fill="none" xmlns="http://www.w3.org/2000/svg">
<path d="M45.2697 3.58117C44.9423 1.86221 43.6121 0.470668 41.9136 0.102319C41.8318 0.0818554 41.7499 0.0818554 41.6476 0.0613915C41.6271 0.0613915 41.6067 0.0204638 41.5862 0H4.05552C4.03506 0.0204638 4.01459 0.0613915 3.97366 0.0613915C2.27516 0.347885 0.842695 1.6985 0.453882 3.41746C0.433418 3.47885 0.39249 3.56071 0.351562 3.64256V41.2756C0.372026 41.3165 0.412954 41.337 0.412954 41.3779C0.822231 43.2606 1.96821 44.427 3.83042 44.8977C3.89181 44.9181 3.93274 44.9591 3.97366 45H41.6476C41.6885 44.9795 41.709 44.9386 41.7499 44.9181C43.6121 44.4884 44.7581 43.3629 45.2288 41.5007C45.2492 41.4393 45.2288 41.3574 45.2492 41.296C45.2492 41.2756 45.2902 41.2551 45.3106 41.2347V3.70396C45.3106 3.66303 45.2697 3.64257 45.2697 3.58117ZM26.443 24.9454H26.2179C24.5194 24.9454 22.8004 24.9454 21.1019 24.9454C21.0201 24.9454 20.9382 24.9454 20.8563 24.9454C20.8563 24.9659 20.8359 24.9659 20.8359 24.9864C20.8359 25.0682 20.8359 25.1501 20.8359 25.2319V41.0096H16.3543V24.9659H10.7267V21.3847H26.4225V24.9454H26.443ZM41.5453 35.648C41.5044 36.3438 41.402 37.0191 41.1155 37.6739C41.0337 37.8786 40.9723 38.0628 40.87 38.2674C40.5016 39.045 39.8877 39.5975 39.1715 40.0477C38.3529 40.5593 37.4525 40.8458 36.5112 41.03C35.4675 41.2347 34.4239 41.296 33.3597 41.2551C32.8482 41.2347 32.3366 41.2347 31.825 41.1733C30.6176 41.03 29.4307 40.764 28.3256 40.2319C28.2642 40.2115 28.1824 40.1091 28.1824 40.0477C28.1824 38.7176 28.1824 37.3875 28.1824 36.0573C28.1824 36.0368 28.1824 36.0164 28.1824 35.9754C28.5098 36.2005 28.8372 36.4256 29.1647 36.6098C29.9628 37.0805 30.8427 37.4079 31.7431 37.6126C32.5207 37.7967 33.2984 37.8172 34.076 37.7763C34.6694 37.7558 35.2629 37.6126 35.7949 37.3465C36.2656 37.101 36.6544 36.7735 36.7567 36.221C36.8591 35.7299 36.8181 35.2387 36.5316 34.809C36.1224 34.1951 35.5494 33.8063 34.915 33.4789C34.1988 33.131 33.4825 32.824 32.7458 32.4966C31.6613 32.0055 30.5971 31.4734 29.7172 30.6548C29.0009 29.9795 28.4689 29.1814 28.2233 28.2196C28.0801 27.6467 28.0391 27.0737 28.0596 26.5007C28.0801 25.0887 28.5917 23.8813 29.5944 22.8786C30.413 22.06 31.4157 21.5689 32.5207 21.2824C33.2779 21.0982 34.0351 20.955 34.8127 20.9345C35.3652 20.9345 35.9177 20.8731 36.4498 20.8936C37.2888 20.9141 38.1074 20.955 38.9259 21.1596C39.458 21.3029 40.0105 21.4461 40.5426 21.5689C40.6449 21.5894 40.6858 21.6508 40.6858 21.7735C40.6858 23.0423 40.6858 24.3315 40.6858 25.6003C40.6858 25.6412 40.6858 25.6821 40.6653 25.7435C40.5016 25.6412 40.3584 25.5593 40.2151 25.4775C39.5603 25.1091 38.8645 24.8636 38.1483 24.6794C37.3502 24.4952 36.5521 24.3724 35.7336 24.3929C35.181 24.4134 34.608 24.4952 34.0964 24.6794C33.4621 24.9045 32.9505 25.2729 32.7254 25.9482C32.5412 26.4802 32.6844 26.9304 33.0119 27.3602C33.4211 27.8922 33.9737 28.2606 34.5671 28.5471C35.3652 28.9359 36.1838 29.2633 36.9614 29.6317C37.8618 30.0614 38.7622 30.4911 39.5194 31.1255C40.1742 31.678 40.7677 32.292 41.0951 33.1105C41.2793 33.6016 41.443 34.1132 41.443 34.6658C41.5248 34.9932 41.5658 35.3206 41.5453 35.648Z" fill="#F28A62"/>
</svg>
